<?xml version="1.0" encoding="utf-8"?>
<!-- Generator: Adobe Illustrator 24.0.1, SVG Export Plug-In . SVG Version: 6.00 Build 0)  -->
<svg version="1.0" id="Warstwa_1" xmlns="http://www.w3.org/2000/svg" xmlns:xlink="http://www.w3.org/1999/xlink" x="0px" y="0px"
	 viewBox="0 0 283.5 283.5" enable-background="new 0 0 283.5 283.5" xml:space="preserve">
<path fill-rule="evenodd" clip-rule="evenodd" fill="#FFFFFF" d="M174.2,103.7c-1.7,7.6-1,6.6-5.4,11.4c-2.7,2.9-5.5,5.4-5.2,11.1
	c0.4,8.7,9.1,14.5,18.6,14.5c14.7,0,25.8-14.2,13.1-26c-4.4-4.1-3.7-4.4-5.2-11.1L174.2,103.7z"/>
<path fill="none" stroke="#000000" stroke-width="1.0001" stroke-miterlimit="22.9256" d="M174.2,103.7c-1.7,7.6-1,6.6-5.4,11.4
	c-2.7,2.9-5.5,5.4-5.2,11.1c0.4,8.7,9.1,14.5,18.6,14.5c14.7,0,25.8-14.2,13.1-26c-4.4-4.1-3.7-4.4-5.2-11.1L174.2,103.7z"/>
<path fill-rule="evenodd" clip-rule="evenodd" d="M168.4,122c0,7,2.7,10.4,7.5,12.8c5.6,2.8,11.4,2.3,16.5,0c-2.4,1-3.3,2.3-7.4,2.9
	c-3.5,0.5-6.9-0.2-9.9-1.5C170.4,134.1,165.6,128.4,168.4,122z"/>
<path fill="none" stroke="#000000" stroke-width="0.216" stroke-miterlimit="22.9256" d="M168.4,122c0,7,2.7,10.4,7.5,12.8
	c5.6,2.8,11.4,2.3,16.5,0c-2.4,1-3.3,2.3-7.4,2.9c-3.5,0.5-6.9-0.2-9.9-1.5C170.4,134.1,165.6,128.4,168.4,122z"/>
<path fill-rule="evenodd" clip-rule="evenodd" fill="#E3000F" d="M154.5,143.1c3,2.6,8.2-3.7,8.3-5.2
	C159.5,136,154.8,142.3,154.5,143.1"/>
<path fill-rule="evenodd" clip-rule="evenodd" d="M173.8,97.5h16.6c0.7,0,1.3,0.6,1.3,1.3v0.5c0,0.7-0.6,1.3-1.3,1.3h-16.6
	c-0.7,0-1.3-0.6-1.3-1.3v-0.5C172.5,98.1,173,97.5,173.8,97.5"/>
<path fill-rule="evenodd" clip-rule="evenodd" d="M190,95.8c0.8-2.7-16.4-3-15.8,0H190z"/>
<path fill="none" stroke="#000000" stroke-width="0.5669" stroke-miterlimit="22.9256" d="M190,95.8c0.8-2.7-16.4-3-15.8,0H190z"/>
<polygon fill-rule="evenodd" clip-rule="evenodd" points="93.5,75.6 129.6,65.8 114,87.5 81.2,91.5 "/>
<polygon fill-rule="evenodd" clip-rule="evenodd" points="76.9,97.9 108.8,94 96.4,112 66,112.3 "/>
<polygon fill-rule="evenodd" clip-rule="evenodd" points="62.1,117.6 91.3,117.6 79.9,134.5 53.2,131.9 "/>
<polygon fill-rule="evenodd" clip-rule="evenodd" points="187,51.7 134.9,65.8 120.1,87.5 147.4,84.7 144.3,90.3 115.1,94 
	103.7,111.6 131.4,111.8 127.5,117.1 99.2,117.4 87.8,134.7 128,139.1 181,68 252,160 268.2,158 "/>
<polygon fill-rule="evenodd" clip-rule="evenodd" points="57.2,85.5 83.9,78.6 72.3,92.8 48.5,95.3 "/>
<polygon fill-rule="evenodd" clip-rule="evenodd" points="43.6,101.5 68,99.8 57.6,113 34.7,113.6 "/>
<polygon fill-rule="evenodd" clip-rule="evenodd" points="29.5,118.7 53.8,118.1 43.6,131 21.1,128.8 "/>
<line fill="none" stroke="#E3000F" stroke-width="7.9999" stroke-miterlimit="22.9256" x1="271.5" y1="171.4" x2="12.7" y2="140.2"/>
<path d="M245.2,174.9v9c1-0.8,2.1-1.4,3.3-1.8c1.2-0.4,2.5-0.6,3.8-0.6c2.1,0,3.8,0.4,5.3,1.3c1.5,0.9,2.3,1.9,2.7,3.1
	c0.3,1.2,0.5,3.3,0.5,6.4v22.6H249v-23.1c0-1.9-0.1-3.1-0.3-3.7c-0.2-0.5-0.7-0.8-1.5-0.8c-0.7,0-1.2,0.3-1.5,0.8
	c-0.3,0.6-0.4,1.7-0.4,3.3v23.4h-11.8v-40H245.2z M229.9,194.5h-11.2v-3.8c0-1.3-0.1-2.2-0.4-2.7c-0.3-0.5-0.7-0.7-1.4-0.7
	c-0.7,0-1.2,0.2-1.4,0.6c-0.2,0.4-0.4,1.3-0.4,2.8v15.5c0,1.2,0.2,2,0.5,2.6c0.4,0.6,0.9,0.9,1.6,0.9c0.8,0,1.4-0.3,1.7-0.9
	c0.3-0.6,0.4-1.8,0.4-3.4v-3.9h10.6c0,2.6-0.1,4.6-0.3,5.9c-0.2,1.3-0.9,2.6-2,4c-1.1,1.4-2.6,2.4-4.3,3.1c-1.8,0.7-4,1-6.6,1
	c-3.3,0-6-0.5-8-1.5c-2-1-3.3-2.3-4.2-4c-0.8-1.7-1.2-4.2-1.2-7.4v-9.3c0-2.8,0.3-4.9,1-6.3c0.7-1.4,2.1-2.7,4.3-3.8
	c2.2-1.1,4.8-1.7,7.9-1.7c3.1,0,5.7,0.6,7.9,1.7c2.2,1.1,3.7,2.5,4.4,4.2C229.6,189.1,229.9,191.5,229.9,194.5z M187.9,193.8v-2.4
	c0-1.7-0.1-2.8-0.3-3.3c-0.2-0.5-0.7-0.7-1.4-0.7c-0.8,0-1.4,0.2-1.6,0.6c-0.2,0.4-0.3,1.6-0.3,3.4v2.4H187.9z M199.8,199.1h-15.4
	v7.1c0,1.5,0.1,2.4,0.4,2.9c0.3,0.4,0.8,0.6,1.5,0.6c0.9,0,1.5-0.3,1.8-0.9c0.3-0.6,0.5-1.7,0.5-3.3v-4.3h11.2v2.4
	c0,2-0.2,3.6-0.5,4.7c-0.3,1.1-1,2.3-2.1,3.5c-1.1,1.2-2.5,2.2-4.3,2.8c-1.7,0.6-3.9,0.9-6.4,0.9c-2.5,0-4.7-0.3-6.6-0.9
	c-1.9-0.6-3.4-1.4-4.5-2.5c-1.1-1.1-1.8-2.2-2.2-3.5c-0.4-1.3-0.6-3.1-0.6-5.6v-9.6c0-2.9,0.5-5.1,1.4-6.8c0.9-1.7,2.4-2.9,4.5-3.8
	c2.1-0.9,4.5-1.3,7.2-1.3c3.3,0,6.1,0.5,8.2,1.6c2.2,1.1,3.7,2.5,4.6,4.2c0.9,1.7,1.3,4.2,1.3,7.4V199.1z M173,174.9v8h-7.3v32
	h-12.4v-32h-7.3v-8H173z M144.5,195.1v6.9H129v-6.9H144.5z M114.2,191.2c0-1.7-0.1-2.7-0.3-3.2c-0.2-0.4-0.7-0.7-1.4-0.7
	c-0.7,0-1.2,0.2-1.4,0.7c-0.2,0.4-0.4,1.5-0.4,3.2V206c0,1.6,0.1,2.6,0.4,3c0.2,0.5,0.7,0.7,1.4,0.7c0.7,0,1.2-0.2,1.4-0.6
	c0.2-0.4,0.3-1.3,0.3-2.8V191.2z M126.1,193.7v8c0,3-0.2,5.1-0.5,6.5c-0.4,1.4-1.1,2.7-2.3,3.9c-1.2,1.2-2.6,2.1-4.5,2.6
	c-1.8,0.6-3.9,0.9-6.2,0.9c-2.6,0-4.9-0.2-6.7-0.7c-1.8-0.5-3.2-1.2-4.2-2.2c-1-1-1.7-2.2-2.2-3.6c-0.4-1.4-0.6-3.5-0.6-6.3v-8.4
	c0-3.1,0.4-5.4,1.2-7.2c0.8-1.7,2.2-3.1,4.2-4.1c2-1,4.6-1.6,7.8-1.6c2.7,0,4.9,0.3,6.9,1c1.9,0.7,3.4,1.5,4.4,2.6
	c1,1.1,1.7,2.2,2.1,3.3C125.9,189.6,126.1,191.3,126.1,193.7z M64.6,182.1l-0.2,3.1c0.9-1.2,2-2.2,3.3-2.8c1.3-0.6,2.7-0.9,4.3-0.9
	c3.2,0,5.7,1.2,7.5,3.7c1-1.2,2.1-2.2,3.4-2.8c1.3-0.6,2.6-0.9,4.2-0.9c2,0,3.7,0.4,5,1.2c1.3,0.8,2.2,1.8,2.5,3
	c0.4,1.2,0.6,3.1,0.6,5.8v23.3H83.7v-21.4c0-2.8-0.1-4.5-0.3-5.2c-0.2-0.7-0.7-1-1.6-1c-0.8,0-1.4,0.3-1.6,1
	c-0.3,0.7-0.4,2.4-0.4,5.2v21.4H68.3v-20.8c0-3.2-0.1-5.1-0.3-5.8c-0.2-0.6-0.7-1-1.5-1c-0.5,0-1,0.2-1.4,0.5
	c-0.4,0.3-0.6,0.8-0.6,1.2c0,0.5-0.1,1.5-0.1,3.1v22.7H52.9v-32.8H64.6z M48.6,174.9v40H36.4v-40H48.6z M11.8,174.9h20.6v8h-8.2v7.6
	h7.7v7.6h-7.7v8.8h9.1v8H11.8V174.9z"/>
<path d="M260.7,228.2v2.5h-3.1v-2.5H260.7z M252.4,223.5c0-0.5,0-0.8-0.1-1c-0.1-0.1-0.2-0.2-0.5-0.2c-0.2,0-0.4,0.1-0.5,0.2
	c-0.1,0.1-0.1,0.4-0.1,1v4.5c0,0.5,0,0.8,0.1,0.9c0.1,0.1,0.2,0.2,0.5,0.2c0.2,0,0.4-0.1,0.5-0.2c0.1-0.1,0.1-0.4,0.1-0.8V223.5z
	 M256.6,224.2v2.4c0,0.9-0.1,1.5-0.2,2c-0.1,0.4-0.4,0.8-0.8,1.2c-0.4,0.4-0.9,0.6-1.6,0.8c-0.6,0.2-1.4,0.3-2.2,0.3
	c-0.9,0-1.7-0.1-2.3-0.2c-0.6-0.1-1.1-0.4-1.5-0.7c-0.4-0.3-0.6-0.7-0.8-1.1c-0.2-0.4-0.2-1-0.2-1.9v-2.5c0-0.9,0.1-1.6,0.4-2.2
	c0.3-0.5,0.8-0.9,1.5-1.2c0.7-0.3,1.6-0.5,2.7-0.5c0.9,0,1.7,0.1,2.4,0.3c0.7,0.2,1.2,0.5,1.5,0.8c0.4,0.3,0.6,0.7,0.7,1
	C256.5,223,256.6,223.5,256.6,224.2z M246.1,228.2v2.5H243v-2.5H246.1z M237.8,223.5c0-0.5,0-0.8-0.1-1c-0.1-0.1-0.2-0.2-0.5-0.2
	c-0.2,0-0.4,0.1-0.5,0.2c-0.1,0.1-0.1,0.4-0.1,1v4.5c0,0.5,0,0.8,0.1,0.9c0.1,0.1,0.2,0.2,0.5,0.2c0.2,0,0.4-0.1,0.5-0.2
	c0.1-0.1,0.1-0.4,0.1-0.8V223.5z M242,224.2v2.4c0,0.9-0.1,1.5-0.2,2c-0.1,0.4-0.4,0.8-0.8,1.2c-0.4,0.4-0.9,0.6-1.6,0.8
	c-0.6,0.2-1.4,0.3-2.2,0.3c-0.9,0-1.7-0.1-2.3-0.2c-0.6-0.1-1.1-0.4-1.5-0.7c-0.4-0.3-0.6-0.7-0.8-1.1c-0.2-0.4-0.2-1-0.2-1.9v-2.5
	c0-0.9,0.1-1.6,0.4-2.2c0.3-0.5,0.8-0.9,1.5-1.2c0.7-0.3,1.6-0.5,2.7-0.5c0.9,0,1.7,0.1,2.4,0.3c0.7,0.2,1.2,0.5,1.5,0.8
	c0.4,0.3,0.6,0.7,0.7,1C241.9,223,242,223.5,242,224.2z M228,220.7v2.2l-3,5.7h3v2h-7.1v-2.1l3.1-5.8h-2.8v-2H228z M216.7,228.2v2.5
	h-3.1v-2.5H216.7z M208.4,223.6c0-0.6,0-1-0.1-1.1c-0.1-0.1-0.2-0.2-0.5-0.2c-0.3,0-0.5,0.1-0.5,0.2c-0.1,0.1-0.1,0.5-0.1,1.1v4.1
	c0,0.6,0,1,0.1,1.1c0.1,0.2,0.3,0.2,0.5,0.2c0.3,0,0.4-0.1,0.5-0.2c0.1-0.1,0.1-0.5,0.1-1V223.6z M207.3,220.7l-0.1,0.9
	c0.4-0.4,0.8-0.6,1.2-0.8c0.4-0.2,0.9-0.3,1.5-0.3c0.6,0,1.2,0.1,1.7,0.4c0.5,0.3,0.8,0.5,0.9,0.9c0.1,0.3,0.2,0.9,0.2,1.7v4.2
	c0,0.9-0.1,1.5-0.2,1.9c-0.1,0.4-0.4,0.7-0.9,0.9c-0.5,0.2-1,0.3-1.6,0.3c-0.5,0-1-0.1-1.4-0.3c-0.4-0.2-0.8-0.4-1.2-0.8v2.3H203
	v-11.3H207.3z M201.4,222.2h-4v-0.9c0-0.4-0.1-0.7-0.2-0.8c-0.1-0.1-0.3-0.2-0.5-0.2c-0.3,0-0.5,0.1-0.6,0.2
	c-0.1,0.2-0.2,0.4-0.2,0.7c0,0.4,0.1,0.7,0.2,0.9c0.1,0.2,0.6,0.4,1.2,0.7c1.9,0.8,3.1,1.5,3.6,2c0.5,0.5,0.7,1.4,0.7,2.6
	c0,0.9-0.1,1.5-0.4,1.9c-0.3,0.4-0.8,0.7-1.6,1c-0.8,0.3-1.7,0.4-2.8,0.4c-1.2,0-2.1-0.2-3-0.5c-0.8-0.3-1.3-0.7-1.6-1.2
	c-0.3-0.5-0.4-1.2-0.4-2.1v-0.8h4v1.5c0,0.5,0.1,0.7,0.2,0.9c0.1,0.1,0.3,0.2,0.6,0.2c0.3,0,0.5-0.1,0.6-0.2
	c0.1-0.2,0.2-0.4,0.2-0.7c0-0.7-0.1-1.2-0.4-1.4c-0.3-0.2-0.9-0.6-2-1.1c-1.1-0.5-1.8-0.9-2.1-1.1c-0.3-0.2-0.6-0.6-0.9-1
	c-0.2-0.4-0.3-0.9-0.3-1.6c0-0.9,0.2-1.6,0.5-2c0.3-0.4,0.8-0.8,1.6-1c0.7-0.2,1.6-0.4,2.6-0.4c1.1,0,2.1,0.1,2.9,0.4
	c0.8,0.3,1.3,0.6,1.6,1c0.3,0.4,0.4,1.1,0.4,2V222.2z"/>
<path fill-rule="evenodd" clip-rule="evenodd" fill="#E3000F" d="M147,124.9c0.8,3.9,8.8,2,9.8,0.9
	C155.2,122.2,147.7,124.4,147,124.9"/>
<path fill-rule="evenodd" clip-rule="evenodd" fill="#E3000F" d="M206.4,124.9c0.8,3.9,8.8,2,9.8,0.9
	C214.6,122.2,207.1,124.4,206.4,124.9"/>
<path fill-rule="evenodd" clip-rule="evenodd" fill="#E3000F" d="M183.8,153.8c3.9-0.7,2.3-8.7,1.2-9.7
	C181.5,145.5,183.4,153.1,183.8,153.8"/>
<path fill-rule="evenodd" clip-rule="evenodd" fill="#E3000F" d="M200.7,137.3c-1.6,3.6,5.9,6.8,7.3,6.5
	C208.9,140.1,201.6,137.3,200.7,137.3"/>
<path fill-rule="evenodd" clip-rule="evenodd" fill="#E3000F" d="M156.9,105.4c-2.3,3.2,4.4,7.9,5.9,7.9
	C164.4,109.8,157.8,105.6,156.9,105.4"/>
<path fill-rule="evenodd" clip-rule="evenodd" fill="#E3000F" d="M198.5,111.6c3,2.6,8.2-3.7,8.3-5.2
	C203.5,104.6,198.8,110.8,198.5,111.6"/>
</svg>
