<svg xmlns="http://www.w3.org/2000/svg" width="28.027" height="22.507" viewBox="0 0 28.027 22.507"><defs><style>.a{fill:#dc291b;}</style></defs><path class="a" d="M15.771,19.2,6.209,28.758a1.681,1.681,0,0,1-2.384,0L2.236,27.169a1.681,1.681,0,0,1,0-2.384l6.778-6.778L2.236,11.229a1.681,1.681,0,0,1,0-2.384l1.582-1.6a1.681,1.681,0,0,1,2.384,0L15.764,16.8a1.683,1.683,0,0,1,.007,2.391Zm13.5-2.391L19.709,7.242a1.681,1.681,0,0,0-2.384,0L15.736,8.831a1.681,1.681,0,0,0,0,2.384l6.778,6.778-6.778,6.778a1.681,1.681,0,0,0,0,2.384l1.589,1.589a1.681,1.681,0,0,0,2.384,0l9.563-9.562a1.672,1.672,0,0,0,0-2.377Z" transform="translate(-1.74 -6.746)"/></svg>