<svg xmlns="http://www.w3.org/2000/svg" width="34.546" height="36" viewBox="0 0 34.546 36"><path d="M34.4,8.556a9.545,9.545,0,0,0-2.818-.937l-1.346-.18V4.186l.689-.011c.646.328,1.576.865,1.624,1.585h2.595a4.18,4.18,0,0,0-2.115-3.07A5.171,5.171,0,0,0,30.24,1.8V0H28.8V1.745a3.628,3.628,0,0,0-2.555,1.082A3.673,3.673,0,0,0,25.016,5.71,3.1,3.1,0,0,0,26.248,8.5a6.284,6.284,0,0,0,2.552.942v3.524c-.72-.127-.721-.1-.976-.4s-.312-1.054-.4-1.054H24.854a3.142,3.142,0,0,0,1.364,2.9,4.018,4.018,0,0,0,2.581.8V16.56h1.44V15.238a6.305,6.305,0,0,0,3.367-1.106,4.014,4.014,0,0,0,1.66-2.939c0-1.151-.093-2.029-.863-2.637ZM28.093,6.55a1.069,1.069,0,0,1-.58-1.035,1.274,1.274,0,0,1,.564-1.176c.224-.148,0-.255.724-.326V6.849C28.08,6.739,28.251,6.64,28.093,6.55ZM31.22,12.9c-.121.042-.98.075-.98.1V10c1.44.124,1.329.257,1.568.4a1.108,1.108,0,0,1,.564.991,1.508,1.508,0,0,1-1.152,1.5Zm-3.486,8.7h-.4l-4.424-8.01a1.348,1.348,0,0,0-1.068-.63H8.423a1.348,1.348,0,0,0-1.068.63L2.932,21.6h-.4c-.793,0-1.814.648-1.814,1.44v7.2c0,.792,1.022,1.44,1.814,1.44H3.6v2.16A2.52,2.52,0,0,0,6.134,36h.72c1.188,0,1.786-.972,1.786-2.16V31.68H20.88v2.16A2.519,2.519,0,0,0,23.414,36h.72c1.188,0,1.786-.972,1.786-2.16V31.68h1.814c.792,0,1.066-.648,1.066-1.44v-7.2c0-.792-.274-1.44-1.066-1.44ZM5.054,27.36a1.8,1.8,0,1,1,1.8-1.8A1.8,1.8,0,0,1,5.054,27.36Zm1.44-5.76,2.918-5.836a1.277,1.277,0,0,1,1.042-.644h9.36a1.278,1.278,0,0,1,1.042.644L23.774,21.6H6.494Zm18.72,5.76a1.8,1.8,0,1,1,1.8-1.8A1.8,1.8,0,0,1,25.214,27.36Z" transform="translate(-0.72)"/></svg>