<svg xmlns="http://www.w3.org/2000/svg" width="45.999" height="37" viewBox="0 0 45.999 37"><defs><style>.a{stroke:#000;}</style></defs><path class="a" d="M30.374,31.5,27,31.5V29.25H18v2.265l-3.374,0A1.125,1.125,0,0,0,13.5,32.643l0,2.231A1.125,1.125,0,0,0,14.626,36l15.747-.018A1.125,1.125,0,0,0,31.5,34.858l0-2.231A1.125,1.125,0,0,0,30.374,31.5ZM41.147,1.88A2.279,2.279,0,0,0,38.887,0H6.112a2.279,2.279,0,0,0-2.26,1.88C-.233,25.957,0,24.474,0,24.75A2.272,2.272,0,0,0,2.294,27H42.706A2.272,2.272,0,0,0,45,24.765c0-.287.236,1.192-3.85-22.885ZM18.269,4.5H26.73l.687,6.75H17.582Zm-5.285,18H5l1.337-7.875h7.451Zm1.145-11.25H6.907L8.053,4.5h6.763ZM16.437,22.5l.8-7.875H27.761l.8,7.875Zm13.746-18h6.763l1.145,6.75H30.87L30.183,4.5Zm1.832,18-.8-7.875h7.451L40,22.5H32.015Z" transform="translate(0.499 0.5)"/></svg>